<mxfile host="app.diagrams.net" modified="2022-03-15T04:54:32.725Z" agent="5.0 (Windows)" etag="wINxlvfd2BdY-7XELS1H" version="17.1.2" type="github">
  <diagram name="Page-1" id="16e2658f-23c8-b752-8be9-c03fbebb8bbe">
    <mxGraphModel dx="1038" dy="536" grid="1" gridSize="10" guides="1" tooltips="1" connect="1" arrows="1" fold="1" page="1" pageScale="1" pageWidth="1100" pageHeight="850" background="none" math="0" shadow="0">
      <root>
        <mxCell id="0" />
        <mxCell id="1" parent="0" />
        <mxCell id="FMDYXA4eSWQStBLN6L_3-6" value="" style="pointerEvents=1;verticalLabelPosition=bottom;shadow=0;dashed=0;align=center;html=1;verticalAlign=top;shape=mxgraph.electrical.miscellaneous.light_bulb;rotation=-90;" vertex="1" parent="1">
          <mxGeometry x="307.5" y="192.5" width="30" height="25" as="geometry" />
        </mxCell>
        <mxCell id="FMDYXA4eSWQStBLN6L_3-7" value="" style="pointerEvents=1;verticalLabelPosition=bottom;shadow=0;dashed=0;align=center;html=1;verticalAlign=top;shape=mxgraph.electrical.resistors.resistor_1;" vertex="1" parent="1">
          <mxGeometry x="345" y="200" width="40" height="10" as="geometry" />
        </mxCell>
        <mxCell id="FMDYXA4eSWQStBLN6L_3-13" style="edgeStyle=orthogonalEdgeStyle;rounded=0;orthogonalLoop=1;jettySize=auto;html=1;entryX=0;entryY=0.5;entryDx=0;entryDy=0;entryPerimeter=0;endArrow=none;endFill=0;" edge="1" parent="1" source="FMDYXA4eSWQStBLN6L_3-6" target="FMDYXA4eSWQStBLN6L_3-7">
          <mxGeometry relative="1" as="geometry">
            <Array as="points">
              <mxPoint x="340" y="205" />
              <mxPoint x="340" y="205" />
            </Array>
          </mxGeometry>
        </mxCell>
        <mxCell id="FMDYXA4eSWQStBLN6L_3-39" style="edgeStyle=orthogonalEdgeStyle;rounded=0;orthogonalLoop=1;jettySize=auto;html=1;exitX=1;exitY=0.5;exitDx=0;exitDy=0;exitPerimeter=0;fontFamily=Times New Roman;fontSize=10;endArrow=none;endFill=0;" edge="1" parent="1" source="FMDYXA4eSWQStBLN6L_3-8">
          <mxGeometry relative="1" as="geometry">
            <mxPoint x="382.51612903225805" y="209.96774193548384" as="targetPoint" />
          </mxGeometry>
        </mxCell>
        <mxCell id="FMDYXA4eSWQStBLN6L_3-8" value="" style="pointerEvents=1;verticalLabelPosition=bottom;shadow=0;dashed=0;align=center;html=1;verticalAlign=top;shape=mxgraph.electrical.capacitors.capacitor_1;rotation=-90;" vertex="1" parent="1">
          <mxGeometry x="362.5" y="215" width="40" height="20" as="geometry" />
        </mxCell>
        <mxCell id="FMDYXA4eSWQStBLN6L_3-15" value="" style="pointerEvents=1;verticalLabelPosition=bottom;shadow=0;dashed=0;align=center;html=1;verticalAlign=top;shape=mxgraph.electrical.signal_sources.signal_ground;" vertex="1" parent="1">
          <mxGeometry x="375" y="245" width="15" height="10" as="geometry" />
        </mxCell>
        <mxCell id="FMDYXA4eSWQStBLN6L_3-19" style="edgeStyle=orthogonalEdgeStyle;rounded=0;orthogonalLoop=1;jettySize=auto;html=1;entryX=1;entryY=0.5;entryDx=0;entryDy=0;entryPerimeter=0;fontFamily=Times New Roman;fontSize=9;endArrow=none;endFill=0;" edge="1" parent="1" source="FMDYXA4eSWQStBLN6L_3-17" target="FMDYXA4eSWQStBLN6L_3-6">
          <mxGeometry relative="1" as="geometry" />
        </mxCell>
        <mxCell id="FMDYXA4eSWQStBLN6L_3-17" value="&lt;font style=&quot;font-size: 9px&quot; face=&quot;Times New Roman&quot;&gt;Microwave benchmark&lt;/font&gt;" style="rounded=1;whiteSpace=wrap;html=1;fontSize=6;" vertex="1" parent="1">
          <mxGeometry x="210" y="160" width="92" height="20" as="geometry" />
        </mxCell>
        <mxCell id="FMDYXA4eSWQStBLN6L_3-20" style="edgeStyle=orthogonalEdgeStyle;rounded=0;orthogonalLoop=1;jettySize=auto;html=1;entryX=0;entryY=0.5;entryDx=0;entryDy=0;entryPerimeter=0;fontFamily=Times New Roman;fontSize=9;endArrow=none;endFill=0;" edge="1" parent="1" source="FMDYXA4eSWQStBLN6L_3-18" target="FMDYXA4eSWQStBLN6L_3-6">
          <mxGeometry relative="1" as="geometry" />
        </mxCell>
        <mxCell id="FMDYXA4eSWQStBLN6L_3-18" value="&lt;font style=&quot;font-size: 9px&quot; face=&quot;Times New Roman&quot;&gt;repeatition rate&lt;/font&gt;" style="rounded=1;whiteSpace=wrap;html=1;fontSize=6;" vertex="1" parent="1">
          <mxGeometry x="210" y="236" width="90" height="20" as="geometry" />
        </mxCell>
        <mxCell id="FMDYXA4eSWQStBLN6L_3-21" value="&lt;font style=&quot;font-size: 10px&quot;&gt;Input bias&lt;/font&gt;" style="rounded=1;whiteSpace=wrap;html=1;fontSize=6;" vertex="1" parent="1">
          <mxGeometry x="370" y="300" width="60" height="20" as="geometry" />
        </mxCell>
        <mxCell id="FMDYXA4eSWQStBLN6L_3-23" value="Proportion" style="verticalLabelPosition=bottom;shadow=0;dashed=0;align=center;html=1;verticalAlign=top;shape=mxgraph.electrical.abstract.operational_amp_1;" vertex="1" parent="1">
          <mxGeometry x="505" y="212.5" width="50" height="50" as="geometry" />
        </mxCell>
        <mxCell id="FMDYXA4eSWQStBLN6L_3-26" style="edgeStyle=orthogonalEdgeStyle;rounded=0;orthogonalLoop=1;jettySize=auto;html=1;entryX=0;entryY=0.165;entryDx=0;entryDy=0;entryPerimeter=0;fontFamily=Times New Roman;fontSize=10;endArrow=none;endFill=0;" edge="1" parent="1" source="FMDYXA4eSWQStBLN6L_3-5" target="FMDYXA4eSWQStBLN6L_3-23">
          <mxGeometry relative="1" as="geometry" />
        </mxCell>
        <mxCell id="FMDYXA4eSWQStBLN6L_3-5" value="" style="verticalLabelPosition=bottom;shadow=0;dashed=0;align=center;html=1;verticalAlign=top;shape=mxgraph.electrical.abstract.operational_amp_1;" vertex="1" parent="1">
          <mxGeometry x="420" y="196" width="50" height="50" as="geometry" />
        </mxCell>
        <mxCell id="FMDYXA4eSWQStBLN6L_3-14" style="edgeStyle=orthogonalEdgeStyle;rounded=0;orthogonalLoop=1;jettySize=auto;html=1;exitX=1;exitY=0.5;exitDx=0;exitDy=0;exitPerimeter=0;entryX=0;entryY=0.165;entryDx=0;entryDy=0;entryPerimeter=0;endArrow=none;endFill=0;" edge="1" parent="1" source="FMDYXA4eSWQStBLN6L_3-7" target="FMDYXA4eSWQStBLN6L_3-5">
          <mxGeometry relative="1" as="geometry">
            <Array as="points">
              <mxPoint x="403" y="205" />
            </Array>
          </mxGeometry>
        </mxCell>
        <mxCell id="FMDYXA4eSWQStBLN6L_3-22" style="edgeStyle=orthogonalEdgeStyle;rounded=0;orthogonalLoop=1;jettySize=auto;html=1;entryX=0;entryY=0.835;entryDx=0;entryDy=0;entryPerimeter=0;fontFamily=Times New Roman;fontSize=10;endArrow=none;endFill=0;" edge="1" parent="1" source="FMDYXA4eSWQStBLN6L_3-21" target="FMDYXA4eSWQStBLN6L_3-5">
          <mxGeometry relative="1" as="geometry" />
        </mxCell>
        <mxCell id="FMDYXA4eSWQStBLN6L_3-27" value="Integral" style="verticalLabelPosition=bottom;shadow=0;dashed=0;align=center;html=1;verticalAlign=top;shape=mxgraph.electrical.abstract.operational_amp_1;" vertex="1" parent="1">
          <mxGeometry x="585" y="186" width="50" height="50" as="geometry" />
        </mxCell>
        <mxCell id="FMDYXA4eSWQStBLN6L_3-28" style="edgeStyle=orthogonalEdgeStyle;rounded=0;orthogonalLoop=1;jettySize=auto;html=1;exitX=1;exitY=0.5;exitDx=0;exitDy=0;exitPerimeter=0;entryX=0;entryY=0.165;entryDx=0;entryDy=0;entryPerimeter=0;fontFamily=Times New Roman;fontSize=10;endArrow=none;endFill=0;" edge="1" parent="1" source="FMDYXA4eSWQStBLN6L_3-5" target="FMDYXA4eSWQStBLN6L_3-27">
          <mxGeometry relative="1" as="geometry">
            <Array as="points">
              <mxPoint x="500" y="221" />
              <mxPoint x="500" y="194" />
            </Array>
          </mxGeometry>
        </mxCell>
        <mxCell id="FMDYXA4eSWQStBLN6L_3-29" value="" style="pointerEvents=1;verticalLabelPosition=bottom;shadow=0;dashed=0;align=center;html=1;verticalAlign=top;shape=mxgraph.electrical.resistors.resistor_1;rotation=-90;" vertex="1" parent="1">
          <mxGeometry x="455" y="280" width="40" height="10" as="geometry" />
        </mxCell>
        <mxCell id="FMDYXA4eSWQStBLN6L_3-31" style="edgeStyle=orthogonalEdgeStyle;rounded=0;orthogonalLoop=1;jettySize=auto;html=1;exitX=0;exitY=0.835;exitDx=0;exitDy=0;exitPerimeter=0;entryX=1;entryY=0.5;entryDx=0;entryDy=0;entryPerimeter=0;fontFamily=Times New Roman;fontSize=10;endArrow=none;endFill=0;" edge="1" parent="1" source="FMDYXA4eSWQStBLN6L_3-23" target="FMDYXA4eSWQStBLN6L_3-29">
          <mxGeometry relative="1" as="geometry" />
        </mxCell>
        <mxCell id="FMDYXA4eSWQStBLN6L_3-32" value="" style="pointerEvents=1;verticalLabelPosition=bottom;shadow=0;dashed=0;align=center;html=1;verticalAlign=top;shape=mxgraph.electrical.signal_sources.signal_ground;" vertex="1" parent="1">
          <mxGeometry x="467.5" y="305" width="15" height="10" as="geometry" />
        </mxCell>
        <mxCell id="FMDYXA4eSWQStBLN6L_3-33" value="" style="pointerEvents=1;verticalLabelPosition=bottom;shadow=0;dashed=0;align=center;html=1;verticalAlign=top;shape=mxgraph.electrical.signal_sources.signal_ground;" vertex="1" parent="1">
          <mxGeometry x="570" y="270" width="15" height="10" as="geometry" />
        </mxCell>
        <mxCell id="FMDYXA4eSWQStBLN6L_3-34" value="" style="pointerEvents=1;verticalLabelPosition=bottom;shadow=0;dashed=0;align=center;html=1;verticalAlign=top;shape=mxgraph.electrical.resistors.resistor_1;rotation=-90;" vertex="1" parent="1">
          <mxGeometry x="557.5" y="246" width="40" height="10" as="geometry" />
        </mxCell>
        <mxCell id="FMDYXA4eSWQStBLN6L_3-35" style="edgeStyle=orthogonalEdgeStyle;rounded=0;orthogonalLoop=1;jettySize=auto;html=1;exitX=0;exitY=0.835;exitDx=0;exitDy=0;exitPerimeter=0;entryX=1;entryY=0.5;entryDx=0;entryDy=0;entryPerimeter=0;fontFamily=Times New Roman;fontSize=10;endArrow=none;endFill=0;" edge="1" parent="1" source="FMDYXA4eSWQStBLN6L_3-27" target="FMDYXA4eSWQStBLN6L_3-34">
          <mxGeometry relative="1" as="geometry" />
        </mxCell>
        <mxCell id="FMDYXA4eSWQStBLN6L_3-55" style="edgeStyle=orthogonalEdgeStyle;rounded=0;orthogonalLoop=1;jettySize=auto;html=1;exitX=1;exitY=0.5;exitDx=0;exitDy=0;exitPerimeter=0;entryX=0.5;entryY=1;entryDx=0;entryDy=0;fontFamily=Times New Roman;fontSize=10;endArrow=none;endFill=0;" edge="1" parent="1" source="FMDYXA4eSWQStBLN6L_3-36" target="FMDYXA4eSWQStBLN6L_3-54">
          <mxGeometry relative="1" as="geometry" />
        </mxCell>
        <mxCell id="FMDYXA4eSWQStBLN6L_3-36" value="" style="verticalLabelPosition=bottom;shadow=0;dashed=0;align=center;html=1;verticalAlign=top;shape=mxgraph.electrical.abstract.operational_amp_1;rotation=-90;" vertex="1" parent="1">
          <mxGeometry x="670" y="136" width="50" height="50" as="geometry" />
        </mxCell>
        <mxCell id="FMDYXA4eSWQStBLN6L_3-38" style="edgeStyle=orthogonalEdgeStyle;rounded=0;orthogonalLoop=1;jettySize=auto;html=1;exitX=1;exitY=0.5;exitDx=0;exitDy=0;exitPerimeter=0;entryX=0.068;entryY=0.163;entryDx=0;entryDy=0;entryPerimeter=0;fontFamily=Times New Roman;fontSize=10;endArrow=none;endFill=0;" edge="1" parent="1" source="FMDYXA4eSWQStBLN6L_3-23" target="FMDYXA4eSWQStBLN6L_3-36">
          <mxGeometry relative="1" as="geometry">
            <Array as="points">
              <mxPoint x="560" y="238" />
              <mxPoint x="560" y="290" />
              <mxPoint x="678" y="290" />
            </Array>
          </mxGeometry>
        </mxCell>
        <mxCell id="FMDYXA4eSWQStBLN6L_3-37" style="edgeStyle=orthogonalEdgeStyle;rounded=0;orthogonalLoop=1;jettySize=auto;html=1;exitX=1;exitY=0.5;exitDx=0;exitDy=0;exitPerimeter=0;entryX=0;entryY=0.165;entryDx=0;entryDy=0;entryPerimeter=0;fontFamily=Times New Roman;fontSize=10;endArrow=none;endFill=0;" edge="1" parent="1" source="FMDYXA4eSWQStBLN6L_3-27" target="FMDYXA4eSWQStBLN6L_3-36">
          <mxGeometry relative="1" as="geometry" />
        </mxCell>
        <mxCell id="FMDYXA4eSWQStBLN6L_3-44" style="edgeStyle=orthogonalEdgeStyle;rounded=0;orthogonalLoop=1;jettySize=auto;html=1;entryX=0;entryY=0.835;entryDx=0;entryDy=0;entryPerimeter=0;fontFamily=Times New Roman;fontSize=10;endArrow=none;endFill=0;" edge="1" parent="1" source="FMDYXA4eSWQStBLN6L_3-42" target="FMDYXA4eSWQStBLN6L_3-36">
          <mxGeometry relative="1" as="geometry">
            <Array as="points">
              <mxPoint x="712" y="235" />
              <mxPoint x="712" y="205" />
              <mxPoint x="712" y="205" />
            </Array>
          </mxGeometry>
        </mxCell>
        <mxCell id="FMDYXA4eSWQStBLN6L_3-42" value="&lt;font style=&quot;font-size: 10px&quot;&gt;Output bias&lt;/font&gt;" style="rounded=1;whiteSpace=wrap;html=1;fontSize=6;" vertex="1" parent="1">
          <mxGeometry x="720" y="227.5" width="60" height="20" as="geometry" />
        </mxCell>
        <mxCell id="FMDYXA4eSWQStBLN6L_3-45" value="" style="endArrow=none;dashed=1;html=1;rounded=0;fontFamily=Times New Roman;fontSize=10;" edge="1" parent="1">
          <mxGeometry width="50" height="50" relative="1" as="geometry">
            <mxPoint x="190" y="92" as="sourcePoint" />
            <mxPoint x="790" y="92" as="targetPoint" />
            <Array as="points">
              <mxPoint x="560" y="92" />
            </Array>
          </mxGeometry>
        </mxCell>
        <mxCell id="FMDYXA4eSWQStBLN6L_3-46" value="" style="endArrow=none;dashed=1;html=1;rounded=0;fontFamily=Times New Roman;fontSize=10;" edge="1" parent="1">
          <mxGeometry width="50" height="50" relative="1" as="geometry">
            <mxPoint x="790" y="330" as="sourcePoint" />
            <mxPoint x="790" y="90" as="targetPoint" />
          </mxGeometry>
        </mxCell>
        <mxCell id="FMDYXA4eSWQStBLN6L_3-48" value="" style="endArrow=none;dashed=1;html=1;rounded=0;fontFamily=Times New Roman;fontSize=10;" edge="1" parent="1">
          <mxGeometry width="50" height="50" relative="1" as="geometry">
            <mxPoint x="190" y="330" as="sourcePoint" />
            <mxPoint x="790" y="330" as="targetPoint" />
          </mxGeometry>
        </mxCell>
        <mxCell id="FMDYXA4eSWQStBLN6L_3-54" value="&lt;font style=&quot;font-size: 10px&quot;&gt;Output &lt;br&gt;&lt;/font&gt;" style="rounded=1;whiteSpace=wrap;html=1;fontSize=6;" vertex="1" parent="1">
          <mxGeometry x="665" y="103" width="60" height="20" as="geometry" />
        </mxCell>
        <mxCell id="FMDYXA4eSWQStBLN6L_3-56" value="" style="endArrow=none;dashed=1;html=1;rounded=0;fontFamily=Times New Roman;fontSize=10;" edge="1" parent="1">
          <mxGeometry width="50" height="50" relative="1" as="geometry">
            <mxPoint x="190" y="331" as="sourcePoint" />
            <mxPoint x="190" y="91" as="targetPoint" />
          </mxGeometry>
        </mxCell>
        <mxCell id="FMDYXA4eSWQStBLN6L_3-60" style="edgeStyle=orthogonalEdgeStyle;rounded=0;orthogonalLoop=1;jettySize=auto;html=1;exitX=0;exitY=0.5;exitDx=0;exitDy=0;fontFamily=Times New Roman;fontSize=10;endArrow=none;endFill=0;" edge="1" parent="1" source="FMDYXA4eSWQStBLN6L_3-57">
          <mxGeometry relative="1" as="geometry">
            <mxPoint x="300" y="330" as="targetPoint" />
          </mxGeometry>
        </mxCell>
        <mxCell id="FMDYXA4eSWQStBLN6L_3-61" style="edgeStyle=orthogonalEdgeStyle;rounded=0;orthogonalLoop=1;jettySize=auto;html=1;exitX=1;exitY=0.5;exitDx=0;exitDy=0;fontFamily=Times New Roman;fontSize=10;endArrow=none;endFill=0;" edge="1" parent="1" source="FMDYXA4eSWQStBLN6L_3-57">
          <mxGeometry relative="1" as="geometry">
            <mxPoint x="680" y="330" as="targetPoint" />
          </mxGeometry>
        </mxCell>
        <mxCell id="FMDYXA4eSWQStBLN6L_3-57" value="" style="pointerEvents=1;verticalLabelPosition=bottom;shadow=0;dashed=0;align=center;html=1;verticalAlign=top;shape=mxgraph.electrical.miscellaneous.batteryStack;fontFamily=Times New Roman;fontSize=10;" vertex="1" parent="1">
          <mxGeometry x="440" y="380" width="65" height="30" as="geometry" />
        </mxCell>
      </root>
    </mxGraphModel>
  </diagram>
</mxfile>
